<svg xmlns="http://www.w3.org/2000/svg" viewBox="0 0 548 552" width="548" height="552" role="img" aria-label="coffee icon 6">
  <g fill="currentColor" fill-rule="evenodd">
    <path d="M 36 32 L 36 47 L 47 47 L 52 55 L 67 59 L 72 67 L 87 71 L 92 79 L 107 83 L 112 91 L 104 96 L 100 111 L 92 116 L 92 123 L 88 124 L 88 131 L 84 132 L 83 140 L 56 140 L 55 144 L 40 148 L 35 156 L 28 156 L 28 159 L 20 164 L 20 171 L 12 176 L 12 183 L 8 184 L 4 199 L 0 200 L 0 275 L 4 276 L 4 287 L 8 288 L 8 299 L 12 300 L 12 315 L 16 316 L 16 347 L 12 348 L 12 355 L 8 356 L 8 363 L 4 364 L 4 367 L 7 367 L 8 371 L 23 367 L 28 359 L 43 355 L 52 343 L 59 343 L 68 331 L 75 331 L 88 315 L 95 315 L 104 303 L 111 303 L 111 300 L 127 287 L 127 280 L 139 271 L 139 264 L 147 259 L 147 252 L 151 251 L 151 244 L 155 243 L 155 232 L 159 231 L 159 192 L 155 191 L 151 176 L 148 176 L 123 148 L 112 148 L 111 144 L 104 144 L 103 140 L 99 139 L 99 136 L 103 135 L 103 128 L 107 127 L 107 120 L 111 119 L 111 112 L 119 107 L 119 100 L 127 99 L 128 103 L 135 103 L 140 111 L 155 115 L 164 127 L 171 127 L 184 143 L 191 143 L 208 163 L 215 163 L 216 167 L 240 188 L 240 295 L 236 296 L 236 307 L 224 308 L 223 304 L 208 304 L 207 308 L 192 308 L 191 312 L 184 312 L 179 320 L 172 320 L 172 323 L 156 336 L 152 351 L 144 356 L 144 375 L 140 376 L 140 419 L 144 420 L 148 435 L 156 440 L 156 447 L 159 447 L 164 455 L 175 455 L 176 459 L 215 459 L 216 455 L 231 451 L 231 448 L 255 427 L 255 420 L 263 415 L 263 404 L 267 403 L 267 396 L 271 395 L 271 348 L 267 347 L 267 336 L 259 331 L 259 324 L 251 319 L 251 296 L 255 295 L 255 208 L 259 207 L 260 211 L 280 228 L 280 235 L 300 252 L 300 259 L 312 268 L 312 275 L 320 280 L 320 291 L 328 296 L 328 303 L 332 304 L 332 311 L 336 312 L 336 319 L 340 320 L 340 327 L 344 328 L 344 335 L 340 336 L 339 340 L 324 344 L 324 347 L 300 368 L 300 375 L 296 376 L 296 383 L 292 384 L 292 395 L 288 396 L 288 403 L 284 404 L 284 459 L 288 460 L 292 483 L 296 484 L 300 499 L 312 508 L 312 515 L 319 515 L 324 523 L 331 523 L 332 527 L 339 527 L 340 531 L 359 531 L 360 535 L 367 535 L 368 531 L 387 531 L 388 527 L 403 523 L 403 520 L 423 503 L 423 496 L 431 491 L 431 484 L 435 483 L 435 472 L 439 471 L 439 456 L 443 455 L 443 412 L 439 411 L 439 396 L 435 395 L 435 388 L 431 387 L 431 376 L 427 375 L 427 368 L 424 368 L 399 340 L 388 340 L 387 336 L 380 336 L 379 332 L 359 331 L 359 324 L 355 323 L 355 316 L 351 315 L 351 308 L 347 307 L 343 292 L 335 287 L 335 280 L 331 279 L 327 264 L 315 255 L 315 248 L 303 239 L 303 232 L 311 231 L 312 227 L 367 227 L 368 231 L 379 231 L 380 235 L 395 235 L 396 239 L 403 239 L 404 243 L 408 244 L 408 247 L 404 248 L 404 287 L 408 288 L 408 299 L 412 300 L 412 307 L 416 308 L 420 323 L 423 323 L 448 351 L 455 351 L 456 355 L 467 355 L 468 359 L 515 359 L 516 355 L 531 351 L 531 348 L 535 347 L 535 340 L 543 335 L 543 328 L 547 327 L 547 276 L 543 275 L 543 264 L 539 263 L 535 248 L 532 248 L 511 224 L 504 224 L 499 216 L 488 216 L 487 212 L 480 212 L 479 208 L 452 208 L 451 212 L 436 212 L 435 216 L 428 216 L 419 228 L 408 228 L 407 224 L 396 224 L 395 220 L 384 220 L 383 216 L 360 216 L 359 212 L 324 212 L 323 216 L 296 216 L 295 220 L 288 220 L 287 216 L 271 203 L 271 196 L 268 196 L 251 176 L 244 176 L 243 172 L 240 172 L 239 168 L 211 143 L 211 140 L 204 140 L 191 124 L 184 124 L 179 116 L 183 115 L 184 111 L 195 111 L 196 107 L 207 107 L 208 103 L 215 103 L 216 99 L 223 99 L 224 95 L 239 95 L 240 91 L 259 91 L 260 107 L 264 108 L 264 119 L 268 120 L 268 127 L 276 132 L 276 139 L 279 139 L 280 143 L 287 143 L 292 151 L 299 151 L 304 159 L 311 159 L 312 163 L 323 163 L 324 167 L 335 167 L 336 171 L 347 171 L 348 175 L 403 175 L 404 171 L 419 171 L 420 167 L 427 167 L 428 163 L 443 163 L 444 159 L 451 159 L 452 155 L 459 155 L 460 151 L 467 151 L 468 147 L 475 147 L 476 143 L 491 139 L 496 131 L 503 131 L 516 115 L 523 115 L 523 112 L 531 107 L 531 96 L 528 96 L 527 92 L 520 92 L 515 84 L 500 80 L 495 72 L 488 72 L 479 60 L 472 60 L 471 56 L 464 56 L 463 52 L 456 52 L 455 48 L 448 48 L 447 44 L 440 44 L 439 40 L 432 40 L 431 36 L 424 36 L 423 32 L 412 32 L 411 28 L 400 28 L 399 24 L 380 24 L 379 20 L 336 20 L 335 24 L 316 24 L 315 28 L 304 28 L 303 32 L 288 36 L 288 39 L 268 56 L 268 67 L 264 68 L 263 76 L 240 76 L 239 80 L 224 80 L 223 84 L 200 88 L 199 92 L 192 92 L 191 96 L 180 96 L 179 100 L 172 100 L 172 103 L 164 108 L 159 100 L 152 100 L 143 88 L 128 84 L 123 76 L 116 76 L 111 68 L 104 68 L 99 60 L 92 60 L 91 56 L 76 52 L 71 44 L 56 40 L 51 32 Z"/><path d="M 323 500 L 327 499 L 328 495 L 335 495 L 340 487 L 347 487 L 348 483 L 379 483 L 380 487 L 387 487 L 392 495 L 399 495 L 404 503 L 396 504 L 391 512 L 384 512 L 383 516 L 376 516 L 375 520 L 352 520 L 351 516 L 340 516 L 331 504 L 324 504 Z"/><path d="M 155 416 L 163 415 L 164 411 L 195 411 L 196 415 L 212 428 L 212 435 L 215 435 L 216 439 L 212 440 L 211 444 L 180 444 L 179 440 L 172 440 L 171 436 L 159 427 L 159 420 L 156 420 Z"/><path d="M 340 351 L 351 351 L 352 347 L 375 347 L 376 351 L 387 351 L 388 355 L 395 355 L 396 363 L 399 363 L 404 371 L 412 372 L 412 379 L 416 380 L 416 387 L 420 388 L 420 395 L 424 396 L 424 407 L 428 408 L 428 455 L 424 456 L 424 471 L 420 472 L 420 479 L 416 480 L 415 488 L 408 488 L 403 480 L 388 476 L 383 468 L 380 468 L 379 472 L 376 472 L 375 468 L 352 468 L 351 472 L 336 472 L 335 476 L 328 476 L 323 484 L 316 484 L 315 488 L 307 483 L 307 472 L 303 471 L 303 460 L 299 459 L 299 408 L 303 407 L 303 396 L 307 395 L 311 380 L 323 371 L 323 364 L 327 363 L 328 359 L 335 359 Z"/><path d="M 208 319 L 223 319 L 224 323 L 239 327 L 240 331 L 248 336 L 252 351 L 256 352 L 256 391 L 252 392 L 252 403 L 244 408 L 240 423 L 236 424 L 231 432 L 227 431 L 223 416 L 220 416 L 211 404 L 204 404 L 203 400 L 196 400 L 195 396 L 160 396 L 159 400 L 151 399 L 151 388 L 155 387 L 155 372 L 159 371 L 159 364 L 163 363 L 167 348 L 171 347 L 184 331 L 191 331 L 196 323 L 207 323 Z"/><path d="M 535 299 L 536 315 L 532 316 L 528 331 L 524 332 L 515 344 L 504 344 L 503 348 L 488 348 L 487 336 L 491 335 L 491 324 L 495 323 L 495 316 L 499 315 L 504 307 L 511 307 L 512 303 L 531 303 L 531 300 Z"/><path d="M 448 223 L 475 223 L 476 227 L 487 227 L 488 231 L 495 231 L 504 243 L 511 243 L 512 247 L 516 248 L 516 255 L 524 260 L 524 267 L 528 268 L 528 275 L 532 276 L 532 283 L 528 284 L 527 288 L 508 288 L 507 292 L 500 292 L 495 300 L 488 300 L 487 308 L 480 308 L 480 319 L 476 320 L 476 335 L 472 336 L 471 344 L 468 344 L 467 340 L 460 340 L 455 332 L 448 332 L 447 324 L 431 311 L 431 304 L 423 299 L 423 284 L 419 283 L 419 268 L 415 267 L 415 264 L 419 263 L 419 252 L 423 251 L 423 244 L 427 243 L 427 236 L 431 235 L 432 231 L 439 231 L 440 227 L 447 227 Z"/><path d="M 111 159 L 112 163 L 119 163 L 120 167 L 124 168 L 124 175 L 140 188 L 140 195 L 144 196 L 144 231 L 140 232 L 136 247 L 128 252 L 128 259 L 116 268 L 116 275 L 112 276 L 99 292 L 92 292 L 92 295 L 84 300 L 83 308 L 76 308 L 71 316 L 64 316 L 55 328 L 40 332 L 40 335 L 32 340 L 31 324 L 27 323 L 27 300 L 23 299 L 23 288 L 19 287 L 19 276 L 15 275 L 15 252 L 11 251 L 11 224 L 15 223 L 15 204 L 19 203 L 19 192 L 23 191 L 23 184 L 27 183 L 44 163 L 51 163 L 52 159 L 59 159 L 60 155 L 76 156 L 76 171 L 72 172 L 72 179 L 68 180 L 68 203 L 64 204 L 64 239 L 60 240 L 60 255 L 63 255 L 64 259 L 75 259 L 75 240 L 79 239 L 79 204 L 83 203 L 83 184 L 87 183 L 87 168 L 91 167 L 91 160 L 95 159 L 96 155 L 99 155 L 100 159 Z"/><path d="M 75 152 L 79 151 L 80 155 L 76 156 Z"/><path d="M 275 88 L 355 87 L 356 91 L 379 91 L 380 95 L 383 95 L 383 92 L 387 91 L 387 80 L 380 80 L 379 76 L 356 76 L 355 72 L 279 71 L 300 47 L 307 47 L 308 43 L 315 43 L 316 39 L 331 39 L 332 35 L 379 35 L 380 39 L 395 39 L 396 43 L 419 47 L 420 51 L 427 51 L 428 55 L 435 55 L 436 59 L 443 59 L 444 63 L 451 63 L 452 67 L 467 71 L 472 79 L 479 79 L 488 91 L 503 95 L 504 99 L 508 100 L 508 107 L 504 108 L 503 112 L 496 112 L 491 120 L 484 120 L 479 128 L 464 132 L 459 140 L 448 140 L 447 144 L 440 144 L 439 148 L 432 148 L 431 152 L 420 152 L 419 156 L 400 156 L 399 160 L 348 160 L 347 156 L 332 156 L 331 152 L 324 152 L 323 148 L 308 144 L 303 136 L 296 136 L 295 132 L 287 127 L 287 120 L 279 115 L 279 108 L 275 107 Z"/>
  </g>
</svg>
